<svg xmlns="http://www.w3.org/2000/svg" viewBox="0 0 1920 1080" width="1920" height="1080" preserveAspectRatio="xMidYMid meet" style="width: 100%; height: 100%; transform: translate3d(0px, 0px, 0px); content-visibility: visible;"><defs><clipPath id="__lottie_element_19"><rect width="1920" height="1080" x="0" y="0"></rect></clipPath><clipPath id="__lottie_element_30"><path fill="#ffffff" clip-rule="nonzero" d=" M-241.7530059814453,-260.0820007324219 C-241.7530059814453,-260.0820007324219 -241.7530059814453,269.87799072265625 -241.7530059814453,269.87799072265625 C-241.7530059814453,269.87799072265625 4.571000099182129,269.87799072265625 4.571000099182129,269.87799072265625 C4.571000099182129,269.87799072265625 4.571000099182129,199.1699981689453 4.571000099182129,199.1699981689453 C4.571000099182129,199.1699981689453 4.571000099182129,-165.05099487304688 4.571000099182129,-165.05099487304688 C4.571000099182129,-165.05099487304688 4.571000099182129,-260.0820007324219 4.571000099182129,-260.0820007324219 C4.571000099182129,-260.0820007324219 -241.7530059814453,-260.0820007324219 -241.7530059814453,-260.0820007324219" fill-opacity="1"></path></clipPath></defs><g clip-path="url(#__lottie_element_19)"><g transform="matrix(1,0,0,1,977,548)" opacity="1" style="display: block;"><g opacity="1" transform="matrix(-0.1354048252105713,-0.9907903671264648,0.9907903671264648,-0.1354048252105713,-39,-21)"><path stroke-linecap="round" stroke-linejoin="round" fill-opacity="0" stroke-dasharray=" 394" stroke-dashoffset="0" stroke="rgb(225,240,255)" stroke-opacity="1" stroke-width="30" d=" M0,-357 C197.02830505371094,-357 357,-197.02830505371094 357,0 C357,197.02830505371094 197.02830505371094,357 0,357 C-197.02830505371094,357 -357,197.02830505371094 -357,0 C-357,-197.02830505371094 -197.02830505371094,-357 0,-357z"></path></g></g><g clip-path="url(#__lottie_element_30)" transform="matrix(1,0,0,1,960,540)" opacity="1" style="display: block;"><g opacity="1" transform="matrix(1,0,0,1,0,0)"><path fill="rgb(224,239,255)" fill-opacity="1" d=" M-10.041000366210938,-260.0820007324219 C-10.041000366210938,-260.0820007324219 -92.7969970703125,-218.3280029296875 -136.2760009765625,-207.24600219726562 C-179.7550048828125,-196.16400146484375 -248.08200073242188,-191.7550048828125 -248.08200073242188,-191.7550048828125 C-248.08200073242188,-191.7550048828125 -268.3190002441406,-2.375 -197.38800048828125,126.24500274658203 C-133,243 -4.428999900817871,269.87799072265625 -4.428999900817871,269.87799072265625 C-4.428999900817871,269.87799072265625 -10.041000366210938,-260.0820007324219 -10.041000366210938,-260.0820007324219z"></path></g></g><g transform="matrix(1,0,0,1,960,540)" opacity="1" style="display: block;"><g opacity="1" transform="matrix(1,0,0,1,0,0)"><path stroke-linecap="round" stroke-linejoin="round" fill-opacity="0" stroke="rgb(249,24,118)" stroke-opacity="1" stroke-width="30" d=" M-20,-264 C-170,-175 -250,-195 -250,-195 C-250,-195 -271.7659912109375,63.19499969482422 -157.38800048828125,186.4320068359375 C-126.41899871826172,219.8000030517578 -36,272 -24,272 C-8,272 77.02400207519531,225.15199279785156 108.56700134277344,189.61599731445312 C218.86000061035156,65.36199951171875 205,-190 205,-190 C205,-190 136.38600158691406,-188.28199768066406 79.8489990234375,-206.61700439453125 C26.56999969482422,-223.89599609375 -17.753000259399414,-265.3330078125 -20,-264z"></path></g></g><g transform="matrix(1,0,0,1,980,562)" opacity="1" style="display: block;"><g opacity="1" transform="matrix(1,0,0,1,-1,2)"><path stroke-linecap="round" stroke-linejoin="round" fill-opacity="0" stroke="rgb(225,240,255)" stroke-opacity="1" stroke-width="30" d=" M-99,14 C-99,14 -38,71 -38,71 C-38,71 89,-55 89,-55"></path></g></g><g transform="matrix(1,0,0,1,960,540)" opacity="1" style="display: block;"><g opacity="1" transform="matrix(1,0,0,1,-1,2)"><path stroke-linecap="round" stroke-linejoin="round" fill-opacity="0" stroke="rgb(2,95,234)" stroke-opacity="1" stroke-width="30" d=" M-99,14 C-99,14 -38,71 -38,71 C-38,71 89,-55 89,-55"></path></g></g></g></svg>